# This file uses centimeters as units for non-parametric coordinates.

mtllib bekir.mtl
g default
v 23.561026 -0.918406 -10.245270
v 19.409737 -0.918406 -7.445085
v 27.110098 -0.918406 -0.506427
v 23.561026 0.918406 -10.245270
v 19.409737 0.918406 -7.445085
v 27.110098 0.918406 -0.506427
v 17.054857 -0.918406 -3.022999
v 17.054857 0.918406 -3.022999
v 17.054207 -0.918406 2.007546
v 17.054207 0.918406 2.007546
vt 0.421875 0.020934
vt 0.421875 0.291566
vt 0.656250 0.156250
vt 0.375000 0.312500
vt 0.458333 0.312500
vt 0.541667 0.312500
vt 0.625000 0.312500
vt 0.375000 0.688440
vt 0.458333 0.688440
vt 0.541667 0.688440
vt 0.625000 0.688440
vt 0.421875 0.708434
vt 0.421875 0.979066
vt 0.656250 0.843750
vt 0.375000 0.312500
vt 0.458333 0.312500
vt 0.458333 0.688440
vt 0.375000 0.688440
vt 0.421875 0.020934
vt 0.656250 0.156250
vt 0.421875 0.291566
vt 0.421875 0.979066
vt 0.421875 0.708434
vt 0.656250 0.843750
vt 0.375000 0.312500
vt 0.458333 0.312500
vt 0.458333 0.688440
vt 0.375000 0.688440
vt 0.541667 0.312500
vt 0.541667 0.688440
vt 0.421875 0.020934
vt 0.656250 0.156250
vt 0.421875 0.291566
vt 0.421875 0.979066
vt 0.421875 0.708434
vt 0.656250 0.843750
vn -0.559207 0.000000 -0.829028
vn -0.559207 0.000000 -0.829028
vn -0.559207 0.000000 -0.829028
vn -0.559207 0.000000 -0.829028
vn 0.939555 0.000000 -0.342397
vn 0.939555 0.000000 -0.342397
vn 0.939555 0.000000 -0.342397
vn 0.939555 0.000000 -0.342397
vn 0.000000 -1.000000 -0.000000
vn 0.000000 -1.000000 -0.000000
vn 0.000000 -1.000000 -0.000000
vn 0.000000 1.000000 -0.000000
vn 0.000000 1.000000 -0.000000
vn 0.000000 1.000000 -0.000000
vn -0.882648 -0.000001 -0.470034
vn -0.882648 -0.000001 -0.470034
vn -0.882648 -0.000001 -0.470034
vn -0.882648 -0.000001 -0.470034
vn 0.000000 -1.000000 0.000000
vn 0.000000 -1.000000 0.000000
vn 0.000000 -1.000000 0.000000
vn 0.000000 1.000000 0.000000
vn 0.000000 1.000000 0.000000
vn 0.000000 1.000000 0.000000
vn -1.000000 -0.000000 -0.000129
vn -1.000000 -0.000000 -0.000129
vn -1.000000 -0.000000 -0.000129
vn -1.000000 -0.000000 -0.000129
vn 0.242536 -0.000000 0.970143
vn 0.242536 -0.000000 0.970143
vn 0.242536 -0.000000 0.970143
vn 0.242536 -0.000000 0.970143
vn 0.000000 -1.000000 0.000000
vn 0.000000 -1.000000 0.000000
vn 0.000000 -1.000000 0.000000
vn 0.000000 1.000000 0.000000
vn 0.000000 1.000000 0.000000
vn 0.000000 1.000000 0.000000
s off
g pPrism7
usemtl initialShadingGroup
f 1/4/1 2/5/2 5/9/3 4/8/4
f 3/6/5 1/7/6 4/11/7 6/10/8
f 1/1/9 3/3/10 2/2/11
f 4/13/12 5/12/13 6/14/14
f 2/15/15 7/16/16 8/17/17 5/18/18
f 2/19/19 3/20/20 7/21/21
f 5/22/22 8/23/23 6/24/24
f 7/25/25 9/26/26 10/27/27 8/28/28
f 9/26/29 3/29/30 6/30/31 10/27/32
f 7/31/33 3/32/34 9/33/35
f 8/34/36 10/35/37 6/36/38
g default
v 5.543952 -0.918406 -3.031162
v 5.541249 -0.918406 2.007546
v 15.597139 -0.918406 -0.506427
v 5.543952 0.918406 -3.031162
v 5.541249 0.918406 2.007546
v 15.597139 0.918406 -0.506427
v 7.922240 -0.918406 -7.473270
v 7.922240 0.918406 -7.473270
vt 0.421875 0.020934
vt 0.421875 0.291566
vt 0.656250 0.156250
vt 0.375000 0.312500
vt 0.458333 0.312500
vt 0.541667 0.312500
vt 0.375000 0.688440
vt 0.458333 0.688440
vt 0.541667 0.688440
vt 0.421875 0.708434
vt 0.421875 0.979066
vt 0.656250 0.843750
vt 0.375000 0.312500
vt 0.458333 0.312500
vt 0.458333 0.688440
vt 0.375000 0.688440
vt 0.541667 0.312500
vt 0.541667 0.688440
vt 0.625000 0.312500
vt 0.625000 0.688440
vt 0.421875 0.020934
vt 0.656250 0.156250
vt 0.421875 0.291566
vt 0.421875 0.979066
vt 0.421875 0.708434
vt 0.656250 0.843750
vn -1.000000 0.000000 -0.000536
vn -1.000000 0.000000 -0.000536
vn -1.000000 0.000000 -0.000536
vn -1.000000 0.000000 -0.000536
vn 0.242536 0.000000 0.970143
vn 0.242536 0.000000 0.970143
vn 0.242536 0.000000 0.970143
vn 0.242536 0.000000 0.970143
vn 0.000000 -1.000000 -0.000000
vn 0.000000 -1.000000 -0.000000
vn 0.000000 -1.000000 -0.000000
vn 0.000000 1.000000 0.000000
vn 0.000000 1.000000 0.000000
vn 0.000000 1.000000 0.000000
vn -0.881597 0.000000 -0.472004
vn -0.881597 0.000000 -0.472004
vn -0.881597 0.000000 -0.472004
vn -0.881597 0.000000 -0.472004
vn 0.672127 0.000000 -0.740436
vn 0.672127 0.000000 -0.740436
vn 0.672127 0.000000 -0.740436
vn 0.672127 0.000000 -0.740436
vn 0.000000 -1.000000 0.000000
vn 0.000000 -1.000000 0.000000
vn 0.000000 -1.000000 0.000000
vn 0.000000 1.000000 0.000000
vn 0.000000 1.000000 0.000000
vn 0.000000 1.000000 0.000000
s off
g pPrism8
usemtl initialShadingGroup
f 11/40/39 12/41/40 15/44/41 14/43/42
f 12/41/43 13/42/44 16/45/45 15/44/46
f 11/37/47 13/39/48 12/38/49
f 14/47/50 15/46/51 16/48/52
f 17/49/53 11/50/54 14/51/55 18/52/56
f 13/53/57 17/55/58 18/56/59 16/54/60
f 17/57/61 13/58/62 11/59/63
f 18/60/64 14/61/65 16/62/66
g default
v -5.027945 -0.918406 -3.020399
v -5.027945 -0.918406 2.007546
v 5.027945 -0.918406 -0.506426
v -5.027945 0.918406 -3.020399
v -5.027945 0.918406 2.007546
v 5.027945 0.918406 -0.506426
vt 0.421875 0.020934
vt 0.421875 0.291566
vt 0.656250 0.156250
vt 0.375000 0.312500
vt 0.458333 0.312500
vt 0.541667 0.312500
vt 0.625000 0.312500
vt 0.375000 0.688440
vt 0.458333 0.688440
vt 0.541667 0.688440
vt 0.625000 0.688440
vt 0.421875 0.708434
vt 0.421875 0.979066
vt 0.656250 0.843750
vn -1.000000 0.000000 -0.000000
vn -1.000000 0.000000 -0.000000
vn -1.000000 0.000000 -0.000000
vn -1.000000 0.000000 -0.000000
vn 0.242536 0.000000 0.970142
vn 0.242536 0.000000 0.970142
vn 0.242536 0.000000 0.970142
vn 0.242536 0.000000 0.970142
vn 0.242536 0.000000 -0.970142
vn 0.242536 0.000000 -0.970142
vn 0.242536 0.000000 -0.970142
vn 0.242536 0.000000 -0.970142
vn 0.000000 -1.000000 0.000000
vn 0.000000 -1.000000 0.000000
vn 0.000000 -1.000000 0.000000
vn 0.000000 1.000000 0.000000
vn 0.000000 1.000000 0.000000
vn 0.000000 1.000000 0.000000
s off
g pPrism1
usemtl initialShadingGroup
f 19/66/67 20/67/68 23/71/69 22/70/70
f 20/67/71 21/68/72 24/72/73 23/71/74
f 21/68/75 19/69/76 22/73/77 24/72/78
f 19/63/79 21/65/80 20/64/81
f 22/75/82 23/74/83 24/76/84
